<svg width="31" height="31" viewBox="0 0 31 31" fill="none" xmlns="http://www.w3.org/2000/svg">
<path d="M15.5028 9.379C11.9557 9.379 9.09453 12.2401 9.09453 15.7873C9.09453 19.3344 11.9557 22.1955 15.5028 22.1955C19.0499 22.1955 21.911 19.3344 21.911 15.7873C21.911 12.2401 19.0499 9.379 15.5028 9.379ZM15.5028 19.9535C13.2105 19.9535 11.3366 18.0851 11.3366 15.7873C11.3366 13.4894 13.205 11.621 15.5028 11.621C17.8006 11.621 19.669 13.4894 19.669 15.7873C19.669 18.0851 17.795 19.9535 15.5028 19.9535ZM23.6679 9.11687C23.6679 9.94788 22.9986 10.6116 22.1732 10.6116C21.3422 10.6116 20.6785 9.9423 20.6785 9.11687C20.6785 8.29143 21.3477 7.62216 22.1732 7.62216C22.9986 7.62216 23.6679 8.29143 23.6679 9.11687ZM27.9122 10.6339C27.8173 8.63165 27.36 6.85808 25.8932 5.39684C24.432 3.9356 22.6584 3.47827 20.6562 3.37788C18.5926 3.26076 12.4074 3.26076 10.3438 3.37788C8.34718 3.47269 6.57362 3.93003 5.1068 5.39127C3.63999 6.8525 3.18823 8.62607 3.08784 10.6283C2.97072 12.6919 2.97072 18.877 3.08784 20.9406C3.18265 22.9429 3.63999 24.7164 5.1068 26.1777C6.57362 27.6389 8.34161 28.0962 10.3438 28.1966C12.4074 28.3137 18.5926 28.3137 20.6562 28.1966C22.6584 28.1018 24.432 27.6445 25.8932 26.1777C27.3544 24.7164 27.8118 22.9429 27.9122 20.9406C28.0293 18.877 28.0293 12.6975 27.9122 10.6339ZM25.2462 23.1548C24.8112 24.2479 23.969 25.0901 22.8703 25.5307C21.225 26.1832 17.321 26.0326 15.5028 26.0326C13.6846 26.0326 9.77496 26.1777 8.13525 25.5307C7.04211 25.0957 6.19994 24.2535 5.75934 23.1548C5.1068 21.5095 5.25739 17.6054 5.25739 15.7873C5.25739 13.9691 5.11238 10.0594 5.75934 8.41971C6.19437 7.32657 7.03653 6.48441 8.13525 6.0438C9.78054 5.39127 13.6846 5.54185 15.5028 5.54185C17.321 5.54185 21.2306 5.39684 22.8703 6.0438C23.9635 6.47883 24.8056 7.32099 25.2462 8.41971C25.8988 10.065 25.7482 13.9691 25.7482 15.7873C25.7482 17.6054 25.8988 21.5151 25.2462 23.1548Z" fill="white"/>
</svg>
