<svg width="31" height="31" viewBox="0 0 31 31" fill="none" xmlns="http://www.w3.org/2000/svg">
<path d="M8.59598 28.2895H3.41295V11.5986H8.59598V28.2895ZM6.00167 9.32185C4.34431 9.32185 3 7.94908 3 6.29171C3 5.49562 3.31625 4.73213 3.87917 4.16921C4.44209 3.60629 5.20558 3.29004 6.00167 3.29004C6.79777 3.29004 7.56125 3.60629 8.12418 4.16921C8.6871 4.73213 9.00335 5.49562 9.00335 6.29171C9.00335 7.94908 7.65848 9.32185 6.00167 9.32185ZM27.9944 28.2895H22.8225V20.1645C22.8225 18.2281 22.7835 15.7448 20.1278 15.7448C17.433 15.7448 17.0201 17.8486 17.0201 20.025V28.2895H11.8426V11.5986H16.8136V13.8754H16.8862C17.5781 12.564 19.2684 11.1801 21.7902 11.1801C27.0357 11.1801 28 14.6343 28 19.121V28.2895H27.9944Z" fill="white"/>
</svg>
