<svg width="30" height="31" viewBox="0 0 30 31" fill="none" xmlns="http://www.w3.org/2000/svg">
<path d="M9.55078 8.29004C5.65676 8.29004 2.5 11.4686 2.5 15.3892C2.5 19.3098 5.65699 22.4883 9.55078 22.4883C13.4446 22.4883 16.6016 19.31 16.6016 15.3892C16.6016 11.4684 13.445 8.29004 9.55078 8.29004ZM20.8105 8.7059C18.8635 8.7059 17.2854 11.6988 17.2854 15.3893C17.2854 19.0798 18.8637 22.0729 20.8108 22.0729C22.7579 22.0729 24.3362 19.08 24.3362 15.3893H24.3359C24.3359 11.6978 22.7578 8.7059 20.8106 8.7059H20.8105ZM26.26 9.40203C25.5754 9.40203 25.0204 12.0828 25.0204 15.3893C25.0204 18.6958 25.575 21.3766 26.26 21.3766C26.945 21.3766 27.5 18.6951 27.5 15.3892C27.5 12.0826 26.9447 9.40203 26.2601 9.40203H26.26Z" fill="white"/>
</svg>
