<svg width="30" height="31" viewBox="0 0 30 31" fill="none" xmlns="http://www.w3.org/2000/svg">
<path d="M27.5 15.79C27.5 22.6953 21.9052 28.29 15 28.29C13.7097 28.29 12.4698 28.0935 11.3004 27.7306C11.8095 26.8989 12.5706 25.538 12.8528 24.4544C13.004 23.8697 13.629 21.4806 13.629 21.4806C14.0373 22.2568 15.2268 22.9171 16.4919 22.9171C20.2621 22.9171 22.9788 19.4493 22.9788 15.1398C22.9788 11.0118 19.6069 7.9221 15.2722 7.9221C9.87903 7.9221 7.01109 11.541 7.01109 15.4876C7.01109 17.3223 7.98891 19.6056 9.54637 20.3314C9.78327 20.4423 9.90927 20.3919 9.96472 20.165C10.005 19.9937 10.2167 19.1419 10.3125 18.7487C10.3427 18.6227 10.3276 18.5118 10.2268 18.3908C9.71774 17.7608 9.30444 16.6116 9.30444 15.538C9.30444 12.781 11.3911 10.1146 14.9496 10.1146C18.0192 10.1146 20.1714 12.2064 20.1714 15.2003C20.1714 18.5824 18.4627 20.9261 16.2399 20.9261C15.0151 20.9261 14.0927 19.913 14.3901 18.6681C14.7429 17.1812 15.4234 15.5783 15.4234 14.5048C15.4234 13.5471 14.9093 12.7457 13.8407 12.7457C12.5857 12.7457 11.5776 14.041 11.5776 15.78C11.5776 16.8888 11.9506 17.6348 11.9506 17.6348C11.9506 17.6348 10.7157 22.8667 10.4889 23.8445C10.2369 24.9231 10.3377 26.4453 10.4435 27.4332C5.79637 25.6136 2.5 21.0874 2.5 15.79C2.5 8.8848 8.09476 3.29004 15 3.29004C21.9052 3.29004 27.5 8.8848 27.5 15.79Z" fill="white"/>
</svg>
