<svg width="30" height="31" viewBox="0 0 30 31" fill="none" xmlns="http://www.w3.org/2000/svg">
<path d="M25.6242 13.5421C23.474 13.5473 21.3765 12.8767 19.6281 11.6252V20.3539C19.6275 21.9706 19.1333 23.5485 18.2117 24.8768C17.2901 26.205 15.985 27.2203 14.4708 27.7867C12.9566 28.3532 11.3056 28.4439 9.73847 28.0467C8.17136 27.6495 6.76286 26.7833 5.70131 25.564C4.63976 24.3447 3.97576 22.8304 3.79809 21.2235C3.62043 19.6166 3.93756 17.9938 4.70709 16.572C5.47663 15.1503 6.66188 13.9973 8.10436 13.2674C9.54684 12.5374 11.1778 12.2652 12.7791 12.4872V16.8775C12.0464 16.647 11.2595 16.6539 10.5309 16.8973C9.80229 17.1407 9.16923 17.6081 8.72211 18.2327C8.27499 18.8574 8.03667 19.6073 8.0412 20.3755C8.04572 21.1436 8.29285 21.8907 8.7473 22.5101C9.20175 23.1294 9.84028 23.5893 10.5717 23.8241C11.3031 24.0589 12.09 24.0565 12.82 23.8174C13.55 23.5783 14.1858 23.1147 14.6366 22.4927C15.0874 21.8706 15.3301 21.1221 15.3301 20.3539V3.29004H19.6281C19.6251 3.65299 19.6555 4.01545 19.7189 4.37283C19.8682 5.17063 20.1788 5.92958 20.6315 6.60325C21.0842 7.27692 21.6696 7.85115 22.3519 8.29082C23.3225 8.93263 24.4605 9.27471 25.6242 9.27446V13.5421Z" fill="white"/>
</svg>
