<svg width="31" height="31" viewBox="0 0 31 31" fill="none" xmlns="http://www.w3.org/2000/svg">
<path d="M25.4303 10.8503C25.4461 11.0724 25.4461 11.2945 25.4461 11.5166C25.4461 18.29 20.2907 26.0947 10.868 26.0947C7.96511 26.0947 5.26842 25.2539 3 23.7946C3.41245 23.8421 3.80899 23.858 4.23731 23.858C6.63258 23.858 8.83757 23.049 10.5984 21.6689C8.34582 21.6213 6.45812 20.1461 5.80773 18.1156C6.12501 18.1631 6.44225 18.1949 6.77541 18.1949C7.23542 18.1949 7.69548 18.1314 8.12375 18.0204C5.77604 17.5445 4.01519 15.4823 4.01519 12.9918V12.9284C4.69727 13.3091 5.49049 13.5471 6.33117 13.5787C4.95108 12.6587 4.04693 11.0883 4.04693 9.31159C4.04693 8.35982 4.30069 7.48736 4.74488 6.72593C7.26711 9.83507 11.0584 11.8655 15.3096 12.0876C15.2303 11.7069 15.1827 11.3104 15.1827 10.9138C15.1827 8.09015 17.467 5.79004 20.3065 5.79004C21.7817 5.79004 23.1142 6.40869 24.0501 7.40806C25.2081 7.18599 26.3185 6.75767 27.302 6.17075C26.9213 7.3605 26.1123 8.35987 25.0495 8.99435C26.0806 8.88336 27.08 8.59776 28 8.20123C27.3021 9.21642 26.4296 10.1206 25.4303 10.8503Z" fill="white"/>
</svg>
