<svg width="30" height="31" viewBox="0 0 30 31" fill="none" xmlns="http://www.w3.org/2000/svg">
<path d="M26.9776 9.79042C26.6901 8.70781 25.8429 7.85518 24.7673 7.56583C22.8177 7.04004 15 7.04004 15 7.04004C15 7.04004 7.18232 7.04004 5.23266 7.56583C4.15706 7.85522 3.30992 8.70781 3.0224 9.79042C2.5 11.7527 2.5 15.8469 2.5 15.8469C2.5 15.8469 2.5 19.941 3.0224 21.9033C3.30992 22.9859 4.15706 23.803 5.23266 24.0924C7.18232 24.6181 15 24.6181 15 24.6181C15 24.6181 22.8177 24.6181 24.7673 24.0924C25.8429 23.803 26.6901 22.9859 26.9776 21.9033C27.5 19.941 27.5 15.8469 27.5 15.8469C27.5 15.8469 27.5 11.7527 26.9776 9.79042ZM12.4432 19.564V12.1297L18.9772 15.8469L12.4432 19.564Z" fill="white"/>
</svg>
